<?xml version="1.0" encoding="UTF-8" ?>
<!DOCTYPE svg PUBLIC "-//W3C//DTD SVG 1.1//EN" "http://www.w3.org/Graphics/SVG/1.1/DTD/svg11.dtd">
<svg width="564pt" height="567pt" viewBox="0 0 564 567" version="1.1" xmlns="http://www.w3.org/2000/svg">
<g id="#fa9a56ff">
<path fill="#fa9a56" opacity="1.00" d=" M 288.03 148.94 C 292.76 149.26 297.98 148.27 302.22 150.84 C 297.84 150.81 293.50 150.12 289.13 150.17 C 286.12 163.00 292.08 175.53 298.99 186.01 C 306.80 197.34 308.70 211.85 306.17 225.20 C 302.47 244.25 304.79 265.45 316.78 281.26 C 303.89 272.23 302.73 253.63 302.64 239.13 C 300.71 230.39 307.36 222.77 306.08 214.04 C 307.83 189.96 280.27 173.76 288.03 148.94 Z" />
<path fill="#fa9a56" opacity="1.00" d=" M 274.30 360.40 C 276.91 362.11 279.95 361.92 282.92 360.02 C 290.01 365.78 298.54 368.97 306.95 372.25 C 303.70 388.50 286.16 401.75 269.36 394.66 C 259.90 391.32 253.95 382.38 250.98 373.17 C 259.16 370.07 268.18 367.21 274.30 360.40 Z" />
</g>
<g id="#ffffffff">
<path fill="#ffffff" opacity="1.00" d=" M 260.42 14.42 C 323.29 9.99 388.24 25.90 438.46 64.55 C 480.56 94.32 513.49 137.03 531.87 185.10 C 541.89 201.64 543.24 221.01 547.59 239.39 C 552.85 272.80 554.03 307.27 546.43 340.42 C 541.93 356.97 541.15 374.76 531.52 389.53 C 502.56 458.86 444.21 515.85 373.29 541.30 C 362.07 544.36 351.38 551.97 339.35 550.46 C 259.24 569.22 171.33 547.33 109.47 493.52 C 90.95 478.76 75.13 460.96 61.25 441.76 C 52.56 425.31 39.15 411.18 33.96 393.02 C 9.70 332.52 5.11 263.06 26.02 201.02 C 43.39 149.38 76.96 101.99 120.69 68.68 C 141.07 54.80 161.10 39.07 185.13 32.12 C 208.31 20.51 234.94 17.83 260.42 14.42 M 167.15 125.17 C 147.96 137.33 130.45 151.07 110.23 161.28 C 100.25 165.89 89.35 169.55 81.32 177.37 C 77.26 187.44 84.85 197.03 87.87 206.15 C 95.55 221.48 107.18 235.51 109.98 253.01 C 109.46 259.03 111.06 266.24 116.34 269.80 C 131.07 271.82 139.91 258.56 149.91 250.95 C 143.62 277.72 131.31 305.59 141.98 333.01 C 149.99 349.96 160.98 365.62 173.96 379.12 C 173.02 387.39 166.31 393.20 163.96 400.98 C 159.23 415.95 147.81 428.06 146.02 444.04 C 138.98 455.42 141.02 469.22 137.51 481.53 C 137.09 490.25 133.19 504.13 144.98 505.93 C 145.32 506.37 146.00 507.25 146.34 507.70 C 183.29 528.40 224.39 544.35 267.12 544.98 C 264.86 537.67 255.79 535.44 251.72 529.28 C 230.41 507.94 204.55 480.98 213.08 448.03 C 216.72 436.12 227.57 427.86 229.23 415.18 C 253.53 432.32 287.42 437.07 314.59 423.56 C 317.17 422.40 319.41 418.96 322.54 420.34 C 326.20 432.29 338.48 438.73 342.46 450.56 C 351.29 471.15 344.51 496.29 328.30 511.29 C 318.37 522.90 304.46 531.64 296.97 544.96 C 338.73 543.05 380.72 530.85 415.93 507.83 C 418.35 507.15 420.52 505.86 422.69 504.61 C 425.39 471.35 418.38 437.86 404.05 407.96 C 397.01 398.26 394.17 386.44 388.27 376.11 C 395.89 365.83 405.76 357.13 411.53 345.54 C 424.09 325.18 426.68 298.55 419.00 276.03 C 418.43 266.52 411.78 258.77 412.03 249.08 C 418.96 255.69 425.79 265.94 435.15 270.95 C 450.24 273.85 449.60 254.67 451.91 244.88 C 458.61 226.37 470.93 210.54 478.38 192.35 C 480.76 184.17 479.46 174.64 471.23 170.79 C 463.79 169.79 458.93 163.29 451.89 161.17 C 424.96 150.62 405.78 125.38 376.78 119.06 C 354.78 115.36 339.89 134.90 326.01 147.68 C 301.10 139.93 275.15 139.73 249.43 140.34 C 244.49 141.35 239.18 145.33 234.09 142.95 C 224.77 137.88 218.59 128.56 208.84 124.18 C 196.83 115.78 179.24 117.22 167.15 125.17 Z" />
<path fill="#ffffff" opacity="1.00" d=" M 274.05 148.99 C 278.71 148.86 283.36 148.94 288.03 148.94 C 280.27 173.76 307.83 189.96 306.08 214.04 C 307.36 222.77 300.71 230.39 302.64 239.13 C 302.73 253.63 303.89 272.23 316.78 281.26 C 332.44 288.70 343.76 302.24 355.11 314.89 C 360.48 319.49 367.62 320.58 374.51 320.33 C 391.03 327.10 393.77 350.50 383.94 363.96 C 371.80 382.85 349.25 389.67 331.16 401.21 C 300.25 423.85 255.47 421.27 225.00 399.00 C 211.01 387.75 191.46 383.51 181.05 367.95 C 168.46 355.91 165.63 330.74 182.19 321.15 C 191.04 319.26 200.98 318.92 207.19 311.20 C 214.29 300.89 222.61 290.65 234.06 284.99 C 250.48 272.09 250.10 249.02 248.84 230.17 C 245.85 215.17 244.48 197.48 255.04 185.04 C 261.92 173.52 278.45 164.30 274.05 148.99 M 278.47 290.62 C 269.48 290.99 259.98 294.32 253.15 300.30 C 250.35 315.61 263.24 330.56 277.86 333.28 C 283.64 348.67 269.72 357.55 257.95 362.95 C 242.08 369.03 221.98 365.13 212.25 350.65 C 209.82 346.28 217.20 347.17 215.92 343.24 C 213.51 340.30 208.52 342.06 206.00 344.27 C 203.34 363.09 225.76 370.20 240.22 372.70 C 248.47 370.83 244.20 381.64 249.35 384.64 C 253.55 391.90 259.11 398.64 267.06 401.92 C 287.56 410.15 311.50 394.92 313.33 373.24 C 328.81 373.71 346.05 368.07 354.34 354.33 C 358.20 349.03 353.31 339.19 346.13 341.95 C 341.99 346.79 351.02 346.76 348.36 350.38 C 345.47 357.22 338.29 359.64 332.59 363.57 C 315.82 370.81 297.73 363.40 285.34 351.72 C 280.87 347.66 283.82 340.55 282.98 335.32 C 296.79 328.96 312.88 317.55 306.79 299.46 C 298.51 293.86 288.72 289.38 278.47 290.62 Z" />
<path fill="#ffffff" opacity="1.00" d=" M 212.29 242.87 C 216.42 242.81 223.47 242.00 224.74 247.47 C 228.93 256.41 215.63 261.63 210.25 255.70 C 207.46 251.55 209.60 246.47 212.29 242.87 Z" />
<path fill="#ffffff" opacity="1.00" d=" M 341.46 243.26 C 345.10 242.83 352.75 241.69 352.61 247.49 C 356.30 256.32 342.62 262.22 337.74 255.14 C 335.95 251.56 336.43 244.38 341.46 243.26 Z" />
</g>
<g id="#221900ff">
<path fill="#221900" opacity="1.00" d=" M 167.15 125.17 C 179.24 117.22 196.83 115.78 208.84 124.18 C 218.59 128.56 224.77 137.88 234.09 142.95 C 239.18 145.33 244.49 141.35 249.43 140.34 C 275.15 139.73 301.10 139.93 326.01 147.68 C 339.89 134.90 354.78 115.36 376.78 119.06 C 405.78 125.38 424.96 150.62 451.89 161.17 C 458.93 163.29 463.79 169.79 471.23 170.79 C 479.46 174.64 480.76 184.17 478.38 192.35 C 470.93 210.54 458.61 226.37 451.91 244.88 C 449.60 254.67 450.24 273.85 435.15 270.95 C 425.79 265.94 418.96 255.69 412.03 249.08 C 411.78 258.77 418.43 266.52 419.00 276.03 C 426.68 298.55 424.09 325.18 411.53 345.54 C 405.76 357.13 395.89 365.83 388.27 376.11 C 394.17 386.44 397.01 398.26 404.05 407.96 C 418.38 437.86 425.39 471.35 422.69 504.61 C 420.52 505.86 418.35 507.15 415.93 507.83 C 416.46 491.66 416.46 475.34 412.47 459.56 C 407.77 428.94 389.25 403.28 378.12 375.07 C 403.00 351.39 425.07 315.37 412.03 279.94 C 405.66 262.06 406.11 241.74 395.46 225.52 C 388.68 214.70 385.66 202.05 378.54 191.43 C 371.80 183.05 362.71 177.05 355.12 169.53 C 353.72 157.63 374.51 152.86 377.92 165.09 C 392.98 199.02 405.58 236.37 434.83 261.18 C 436.84 263.76 441.50 263.09 441.43 259.42 C 442.77 229.88 467.98 208.68 472.85 180.38 C 461.88 176.67 451.18 171.99 441.60 165.41 C 421.46 156.08 406.19 138.65 385.35 130.60 C 378.96 126.49 371.02 126.01 363.75 127.69 C 350.58 134.64 339.22 144.71 329.49 155.91 C 320.23 155.55 311.37 152.20 302.22 150.84 C 297.98 148.27 292.76 149.26 288.03 148.94 C 283.36 148.94 278.71 148.86 274.05 148.99 C 259.44 148.59 245.36 152.68 231.21 155.02 C 218.65 141.60 203.34 123.48 182.67 127.57 C 170.60 132.09 158.85 138.47 149.53 147.50 C 129.67 160.58 109.19 172.89 86.87 181.24 C 87.70 194.76 98.07 204.77 103.30 216.66 C 108.42 229.30 119.90 240.18 118.00 254.95 C 118.38 257.54 117.21 266.56 123.56 262.72 C 152.10 242.06 168.40 209.39 179.78 176.87 C 181.34 169.77 185.87 163.90 190.45 158.47 C 196.20 151.58 208.31 160.55 206.44 168.31 C 201.46 175.48 192.48 178.37 187.73 185.75 C 179.68 194.42 178.21 206.61 172.68 216.71 C 169.23 227.30 158.97 234.41 157.99 245.99 C 154.52 271.72 140.42 296.79 147.84 323.18 C 152.92 333.87 156.40 345.62 164.17 354.78 C 169.23 362.88 177.64 368.24 183.01 376.12 C 181.72 389.68 171.60 399.83 167.33 412.42 C 151.54 440.86 144.28 473.46 144.98 505.93 C 133.19 504.13 137.09 490.25 137.51 481.53 C 141.02 469.22 138.98 455.42 146.02 444.04 C 147.81 428.06 159.23 415.95 163.96 400.98 C 166.31 393.20 173.02 387.39 173.96 379.12 C 160.98 365.62 149.99 349.96 141.98 333.01 C 131.31 305.59 143.62 277.72 149.91 250.95 C 139.91 258.56 131.07 271.82 116.34 269.80 C 111.06 266.24 109.46 259.03 109.98 253.01 C 107.18 235.51 95.55 221.48 87.87 206.15 C 84.85 197.03 77.26 187.44 81.32 177.37 C 89.35 169.55 100.25 165.89 110.23 161.28 C 130.45 151.07 147.96 137.33 167.15 125.17 Z" />
<path fill="#221900" opacity="1.00" d=" M 218.28 213.06 C 221.93 211.59 227.38 214.67 224.30 218.35 C 220.11 222.77 214.01 216.38 218.28 213.06 Z" />
<path fill="#221900" opacity="1.00" d=" M 335.42 213.10 C 340.71 209.44 346.64 218.66 340.33 220.43 C 335.46 223.38 329.47 216.09 335.42 213.10 Z" />
<path fill="#221900" opacity="1.00" d=" M 343.50 239.43 C 360.74 236.37 363.10 259.96 377.70 263.35 C 376.90 270.51 368.98 264.90 365.86 262.14 C 361.30 258.16 361.59 267.56 360.68 269.66 C 355.21 281.26 337.10 282.81 329.44 272.58 C 321.97 260.44 329.12 241.94 343.50 239.43 M 341.46 243.26 C 336.43 244.38 335.95 251.56 337.74 255.14 C 342.62 262.22 356.30 256.32 352.61 247.49 C 352.75 241.69 345.10 242.83 341.46 243.26 Z" />
<path fill="#221900" opacity="1.00" d=" M 206.46 241.32 C 212.62 241.55 220.39 238.70 225.34 243.66 C 232.89 249.05 232.44 259.62 231.97 267.80 C 228.43 278.51 211.49 285.04 203.73 275.28 C 197.92 272.34 197.43 265.46 195.97 259.92 C 193.55 263.97 180.17 272.15 180.28 263.39 C 192.47 260.08 195.81 246.11 206.46 241.32 M 212.29 242.87 C 209.60 246.47 207.46 251.55 210.25 255.70 C 215.63 261.63 228.93 256.41 224.74 247.47 C 223.47 242.00 216.42 242.81 212.29 242.87 Z" />
<path fill="#221900" opacity="1.00" d=" M 278.47 290.62 C 288.72 289.38 298.51 293.86 306.79 299.46 C 312.88 317.55 296.79 328.96 282.98 335.32 C 283.82 340.55 280.87 347.66 285.34 351.72 C 297.73 363.40 315.82 370.81 332.59 363.57 C 338.29 359.64 345.47 357.22 348.36 350.38 C 351.02 346.76 341.99 346.79 346.13 341.95 C 353.31 339.19 358.20 349.03 354.34 354.33 C 346.05 368.07 328.81 373.71 313.33 373.24 C 311.50 394.92 287.56 410.15 267.06 401.92 C 259.11 398.64 253.55 391.90 249.35 384.64 C 244.20 381.64 248.47 370.83 240.22 372.70 C 225.76 370.20 203.34 363.09 206.00 344.27 C 208.52 342.06 213.51 340.30 215.92 343.24 C 217.20 347.17 209.82 346.28 212.25 350.65 C 221.98 365.13 242.08 369.03 257.95 362.95 C 269.72 357.55 283.64 348.67 277.86 333.28 C 263.24 330.56 250.35 315.61 253.15 300.30 C 259.98 294.32 269.48 290.99 278.47 290.62 M 274.30 360.40 C 268.18 367.21 259.16 370.07 250.98 373.17 C 253.95 382.38 259.90 391.32 269.36 394.66 C 286.16 401.75 303.70 388.50 306.95 372.25 C 298.54 368.97 290.01 365.78 282.92 360.02 C 279.95 361.92 276.91 362.11 274.30 360.40 Z" />
</g>
<g id="#fa6b05ff">
<path fill="#fa6b05" opacity="1.00" d=" M 182.67 127.57 C 203.34 123.48 218.65 141.60 231.21 155.02 C 245.36 152.68 259.44 148.59 274.05 148.99 C 278.45 164.30 261.92 173.52 255.04 185.04 C 244.48 197.48 245.85 215.17 248.84 230.17 C 250.10 249.02 250.48 272.09 234.06 284.99 C 222.61 290.65 214.29 300.89 207.19 311.20 C 200.98 318.92 191.04 319.26 182.19 321.15 C 165.63 330.74 168.46 355.91 181.05 367.95 C 191.46 383.51 211.01 387.75 225.00 399.00 C 255.47 421.27 300.25 423.85 331.16 401.21 C 349.25 389.67 371.80 382.85 383.94 363.96 C 393.77 350.50 391.03 327.10 374.51 320.33 C 367.62 320.58 360.48 319.49 355.11 314.89 C 343.76 302.24 332.44 288.70 316.78 281.26 C 304.79 265.45 302.47 244.25 306.17 225.20 C 308.70 211.85 306.80 197.34 298.99 186.01 C 292.08 175.53 286.12 163.00 289.13 150.17 C 293.50 150.12 297.84 150.81 302.22 150.84 C 311.37 152.20 320.23 155.55 329.49 155.91 C 339.22 144.71 350.58 134.64 363.75 127.69 C 371.02 126.01 378.96 126.49 385.35 130.60 C 406.19 138.65 421.46 156.08 441.60 165.41 C 451.18 171.99 461.88 176.67 472.85 180.38 C 467.98 208.68 442.77 229.88 441.43 259.42 C 441.50 263.09 436.84 263.76 434.83 261.18 C 405.58 236.37 392.98 199.02 377.92 165.09 C 374.51 152.86 353.72 157.63 355.12 169.53 C 362.71 177.05 371.80 183.05 378.54 191.43 C 385.66 202.05 388.68 214.70 395.46 225.52 C 406.11 241.74 405.66 262.06 412.03 279.94 C 425.07 315.37 403.00 351.39 378.12 375.07 C 389.25 403.28 407.77 428.94 412.47 459.56 C 416.46 475.34 416.46 491.66 415.93 507.83 C 380.72 530.85 338.73 543.05 296.97 544.96 C 304.46 531.64 318.37 522.90 328.30 511.29 C 344.51 496.29 351.29 471.15 342.46 450.56 C 338.48 438.73 326.20 432.29 322.54 420.34 C 319.41 418.96 317.17 422.40 314.59 423.56 C 287.42 437.07 253.53 432.32 229.23 415.18 C 227.57 427.86 216.72 436.12 213.08 448.03 C 204.55 480.98 230.41 507.94 251.72 529.28 C 255.79 535.44 264.86 537.67 267.12 544.98 C 224.39 544.35 183.29 528.40 146.34 507.70 C 146.00 507.25 145.32 506.37 144.98 505.93 C 144.28 473.46 151.54 440.86 167.33 412.42 C 171.60 399.83 181.72 389.68 183.01 376.12 C 177.64 368.24 169.23 362.88 164.17 354.78 C 156.40 345.62 152.92 333.87 147.84 323.18 C 140.42 296.79 154.52 271.72 157.99 245.99 C 158.97 234.41 169.23 227.30 172.68 216.71 C 178.21 206.61 179.68 194.42 187.73 185.75 C 192.48 178.37 201.46 175.48 206.44 168.31 C 208.31 160.55 196.20 151.58 190.45 158.47 C 185.87 163.90 181.34 169.77 179.78 176.87 C 168.40 209.39 152.10 242.06 123.56 262.72 C 117.21 266.56 118.38 257.54 118.00 254.95 C 119.90 240.18 108.42 229.30 103.30 216.66 C 98.07 204.77 87.70 194.76 86.87 181.24 C 109.19 172.89 129.67 160.58 149.53 147.50 C 158.85 138.47 170.60 132.09 182.67 127.57 M 218.28 213.06 C 214.01 216.38 220.11 222.77 224.30 218.35 C 227.38 214.67 221.93 211.59 218.28 213.06 M 335.42 213.10 C 329.47 216.09 335.46 223.38 340.33 220.43 C 346.64 218.66 340.71 209.44 335.42 213.10 M 343.50 239.43 C 329.12 241.94 321.97 260.44 329.44 272.58 C 337.10 282.81 355.21 281.26 360.68 269.66 C 361.59 267.56 361.30 258.16 365.86 262.14 C 368.98 264.90 376.90 270.51 377.70 263.35 C 363.10 259.96 360.74 236.37 343.50 239.43 M 206.46 241.32 C 195.81 246.11 192.47 260.08 180.28 263.39 C 180.17 272.15 193.55 263.97 195.97 259.92 C 197.43 265.46 197.92 272.34 203.73 275.28 C 211.49 285.04 228.43 278.51 231.97 267.80 C 232.44 259.62 232.89 249.05 225.34 243.66 C 220.39 238.70 212.62 241.55 206.46 241.32 Z" />
</g>
</svg>
